<svg width="159" height="159" viewBox="0 0 159 159" fill="none" xmlns="http://www.w3.org/2000/svg">
<path d="M79.501 158.026C122.87 158.026 158.027 122.869 158.027 79.5C158.027 36.1311 122.87 0.973633 79.501 0.973633C36.1321 0.973633 0.974609 36.1311 0.974609 79.5C0.974609 122.869 36.1321 158.026 79.501 158.026Z" fill="#83CD8F"/>
<path d="M93.8411 76.1194L69.0911 61.4834C68.5798 61.1745 67.9953 61.0077 67.3979 61.0003C66.8006 60.9928 66.2121 61.1449 65.6932 61.4409C65.1743 61.7369 64.7438 62.166 64.4462 62.684C64.1485 63.202 63.9946 63.79 64.0001 64.3874V93.6444C64.0003 94.2394 64.1579 94.8239 64.4571 95.3383C64.7562 95.8528 65.1861 96.2789 65.7031 96.5734C66.2202 96.868 66.806 97.0204 67.4011 97.0153C67.9961 97.0102 68.5792 96.8477 69.0911 96.5444L93.8411 81.9194C94.3462 81.6213 94.7648 81.1967 95.0556 80.6874C95.3464 80.1781 95.4993 79.6018 95.4993 79.0154C95.4993 78.4289 95.3464 77.8526 95.0556 77.3433C94.7648 76.8341 94.3462 76.4094 93.8411 76.1114V76.1194Z" fill="#090F1F"/>
</svg>
