<svg width="18" height="19" viewBox="0 0 18 19" fill="none" xmlns="http://www.w3.org/2000/svg">
<path d="M1.96808 9.50006C1.96808 9.27629 2.05698 9.06168 2.21521 8.90344C2.37345 8.74521 2.58806 8.65631 2.81183 8.65631L13.1478 8.65631L9.52527 5.03452C9.36676 4.87601 9.27771 4.66102 9.27771 4.43686C9.27771 4.2127 9.36676 3.99771 9.52527 3.8392C9.68378 3.6807 9.89876 3.59165 10.1229 3.59165C10.3471 3.59165 10.5621 3.6807 10.7206 3.8392L15.7831 8.9017C15.8617 8.98009 15.9242 9.07324 15.9667 9.17579C16.0093 9.27835 16.0312 9.38831 16.0312 9.49936C16.0312 9.61041 16.0093 9.72037 15.9667 9.82293C15.9242 9.92548 15.8617 10.0186 15.7831 10.097L10.7206 15.1595C10.6421 15.238 10.5489 15.3003 10.4464 15.3427C10.3438 15.3852 10.2339 15.4071 10.1229 15.4071C10.0119 15.4071 9.90203 15.3852 9.79948 15.3427C9.69693 15.3003 9.60376 15.238 9.52527 15.1595C9.44679 15.081 9.38453 14.9879 9.34205 14.8853C9.29958 14.7828 9.27771 14.6729 9.27771 14.5619C9.27771 14.4509 9.29958 14.341 9.34205 14.2384C9.38453 14.1359 9.44679 14.0427 9.52527 13.9642L13.1478 10.3438L2.81183 10.3438C2.58806 10.3438 2.37345 10.2549 2.21521 10.0967C2.05698 9.93845 1.96808 9.72384 1.96808 9.50006Z" fill="white"/>
</svg>
