<svg width="18" height="18" viewBox="0 0 18 18" fill="none" xmlns="http://www.w3.org/2000/svg">
<path d="M1.96808 8.99997C1.96808 8.7762 2.05698 8.56159 2.21521 8.40335C2.37345 8.24512 2.58806 8.15622 2.81183 8.15622L13.1478 8.15622L9.52527 4.53442C9.36676 4.37592 9.27771 4.16093 9.27771 3.93677C9.27771 3.7126 9.36676 3.49762 9.52527 3.33911C9.68378 3.1806 9.89876 3.09155 10.1229 3.09155C10.3471 3.09155 10.5621 3.1806 10.7206 3.33911L15.7831 8.40161C15.8617 8.48 15.9242 8.57314 15.9667 8.6757C16.0093 8.77826 16.0312 8.88822 16.0312 8.99927C16.0312 9.11032 16.0093 9.22027 15.9667 9.32283C15.9242 9.42539 15.8617 9.51854 15.7831 9.59692L10.7206 14.6594C10.6421 14.7379 10.5489 14.8002 10.4464 14.8426C10.3438 14.8851 10.2339 14.907 10.1229 14.907C10.0119 14.907 9.90203 14.8851 9.79948 14.8426C9.69693 14.8002 9.60376 14.7379 9.52527 14.6594C9.44679 14.5809 9.38453 14.4878 9.34205 14.3852C9.29958 14.2827 9.27771 14.1728 9.27771 14.0618C9.27771 13.9508 9.29958 13.8409 9.34205 13.7383C9.38453 13.6358 9.44679 13.5426 9.52527 13.4641L13.1478 9.84372L2.81183 9.84372C2.58806 9.84372 2.37345 9.75483 2.21521 9.59659C2.05698 9.43836 1.96808 9.22375 1.96808 8.99997Z" fill="#090F1F"/>
</svg>
